<?xml version="1.0" encoding="UTF-8"?>
<!DOCTYPE svg PUBLIC "-//W3C//DTD SVG 1.1//EN" "http://www.w3.org/Graphics/SVG/1.1/DTD/svg11.dtd">
<svg xmlns="http://www.w3.org/2000/svg" version="1.1" width="170px" height="248px" style="shape-rendering:geometricPrecision; text-rendering:geometricPrecision; image-rendering:optimizeQuality; fill-rule:evenodd; clip-rule:evenodd" xmlns:xlink="http://www.w3.org/1999/xlink">
<g><path style="opacity:1" fill="#1f1f20" d="M 166.5,34.5 C 166.5,35.5 166.5,36.5 166.5,37.5C 159.021,39.7365 152.688,43.7365 147.5,49.5C 145.596,49.7376 144.262,50.7376 143.5,52.5C 137.699,58.1147 132.366,64.1147 127.5,70.5C 120.732,78.2698 114.732,86.6031 109.5,95.5C 93.5548,118.061 81.8882,142.727 74.5,169.5C 74.7845,167.585 74.4511,165.919 73.5,164.5C 75.8989,153.804 79.3989,143.47 84,133.5C 91.7634,117.629 100.263,102.296 109.5,87.5C 112.888,84.4029 115.555,80.7363 117.5,76.5C 128.833,61.8333 141.833,48.8333 156.5,37.5C 159.593,35.8907 162.927,34.8907 166.5,34.5 Z"/></g>
<g><path style="opacity:1" fill="#1f1e1f" d="M 155.5,71.5 C 156.833,71.5 158.167,71.5 159.5,71.5C 159.5,72.5 159.5,73.5 159.5,74.5C 155.938,74.9652 152.605,76.1319 149.5,78C 143.5,82.6667 137.5,87.3333 131.5,92C 124.294,99.5374 117.46,107.371 111,115.5C 108.843,117.817 107.343,120.484 106.5,123.5C 103.723,125.951 101.723,128.951 100.5,132.5C 90.6442,145.379 83.6442,159.712 79.5,175.5C 77.6396,179.083 75.9729,182.749 74.5,186.5C 74.741,183.001 73.9076,182.668 72,185.5C 71.2204,183.613 71.3871,181.946 72.5,180.5C 72.369,181.239 72.5357,181.906 73,182.5C 74.1362,180.257 74.9695,177.924 75.5,175.5C 83.9385,150.951 96.2719,128.618 112.5,108.5C 121.527,97.4729 131.527,87.4729 142.5,78.5C 146.633,75.6783 150.966,73.345 155.5,71.5 Z"/></g>
<g><path style="opacity:1" fill="#1e1d1e" d="M 54.5,160.5 C 54.8534,166.621 55.8534,172.621 57.5,178.5C 60.5799,198.135 63.5799,217.801 66.5,237.5C 67.9458,236.829 68.6125,235.662 68.5,234C 66.9817,214.789 67.3151,195.622 69.5,176.5C 69.3284,175.508 69.6618,174.842 70.5,174.5C 71.9238,172.485 72.5905,170.152 72.5,167.5C 72.5569,166.391 72.8902,165.391 73.5,164.5C 74.4511,165.919 74.7845,167.585 74.5,169.5C 74.5,170.167 74.5,170.833 74.5,171.5C 73.3428,174.273 72.6761,177.273 72.5,180.5C 71.3871,181.946 71.2204,183.613 72,185.5C 73.9076,182.668 74.741,183.001 74.5,186.5C 74.5,187.833 74.5,189.167 74.5,190.5C 73.144,193.577 72.3106,196.91 72,200.5C 71.2562,209.824 70.7562,219.157 70.5,228.5C 71.8221,228.67 72.9887,228.337 74,227.5C 79.5957,218.632 85.429,209.965 91.5,201.5C 97.8333,193.5 104.167,185.5 110.5,177.5C 112.167,175.5 113.833,173.5 115.5,171.5C 117.148,170.19 118.814,168.857 120.5,167.5C 121.5,167.833 122.167,168.5 122.5,169.5C 121.185,171.316 119.685,172.983 118,174.5C 117.517,175.448 117.351,176.448 117.5,177.5C 116.448,177.351 115.448,177.517 114.5,178C 113.316,180.685 111.483,182.852 109,184.5C 109.128,186.445 108.962,188.278 108.5,190C 107.207,190.49 105.873,190.657 104.5,190.5C 104.768,192.099 104.434,193.432 103.5,194.5C 103.631,193.761 103.464,193.094 103,192.5C 99.1885,195.812 96.6885,199.812 95.5,204.5C 94.2794,205.028 93.1127,205.695 92,206.5C 92.1282,208.445 91.9615,210.278 91.5,212C 90.2068,212.49 88.8734,212.657 87.5,212.5C 87.6085,214.514 86.9418,216.18 85.5,217.5C 83.7868,218.635 83.1201,220.302 83.5,222.5C 82.1779,222.33 81.0113,222.663 80,223.5C 78.295,225.577 77.1283,227.91 76.5,230.5C 73.1681,234.517 70.1681,238.85 67.5,243.5C 66.3112,244.429 64.9778,244.762 63.5,244.5C 61.5392,221.782 57.8726,199.449 52.5,177.5C 52.9867,176.554 53.3201,175.554 53.5,174.5C 53.2394,171.708 52.2394,169.375 50.5,167.5C 51.243,162.958 50.5764,158.624 48.5,154.5C 47.8333,154.167 47.1667,153.833 46.5,153.5C 47.0906,152.849 47.7573,152.182 48.5,151.5C 47.9495,149.343 47.2829,147.343 46.5,145.5C 46.4431,144.391 46.1098,143.391 45.5,142.5C 45.3468,139.199 44.3468,136.199 42.5,133.5C 42.8333,132.833 43.1667,132.167 43.5,131.5C 45.4547,133.512 46.9547,135.846 48,138.5C 50.1847,145.921 52.3514,153.254 54.5,160.5 Z"/></g>
</svg>
