<svg xmlns="http://www.w3.org/2000/svg" version="1.1" width="221px" height="93px" style="shape-rendering:geometricPrecision; text-rendering:geometricPrecision; image-rendering:optimizeQuality; fill-rule:evenodd; clip-rule:evenodd" xmlns:xlink="http://www.w3.org/1999/xlink">
<g><path style="opacity:1" fill="#242424" d="M 121.5,10.5 C 116.36,11.4881 111.026,11.8214 105.5,11.5C 102.428,11.8174 99.4281,11.4841 96.5,10.5C 96.7093,9.91395 97.0426,9.41395 97.5,9C 99,8.83333 100.5,8.66667 102,8.5C 108.43,9.85965 114.93,10.5263 121.5,10.5 Z"/></g>
<g><path style="opacity:1" fill="#3d3d3d" d="M 121.5,10.5 C 126.167,10.5 130.833,10.5 135.5,10.5C 135.5,10.8333 135.5,11.1667 135.5,11.5C 130.968,11.1818 126.634,11.5151 122.5,12.5C 116.642,12.8222 110.975,12.4889 105.5,11.5C 111.026,11.8214 116.36,11.4881 121.5,10.5 Z"/></g>
<g><path style="opacity:1" fill="#201f20" d="M 122.5,12.5 C 126.634,11.5151 130.968,11.1818 135.5,11.5C 144.572,11.3713 153.572,12.038 162.5,13.5C 173.514,16.2799 184.514,19.2799 195.5,22.5C 197.651,24.7184 200.318,26.0517 203.5,26.5C 207.054,28.7755 210.72,30.7755 214.5,32.5C 205.596,36.2441 196.596,39.5774 187.5,42.5C 186.833,42.5 186.5,42.1667 186.5,41.5C 192.555,39.3097 198.555,36.8097 204.5,34C 200.256,30.7115 195.59,28.2115 190.5,26.5C 176.093,19.6089 160.76,15.6089 144.5,14.5C 138.19,13.8096 131.857,13.4763 125.5,13.5C 124.791,12.596 123.791,12.2627 122.5,12.5 Z"/></g>
<g><path style="opacity:1" fill="#6d6c6d" d="M 158.5,32.5 C 169.654,31.5052 180.988,31.1719 192.5,31.5C 192.672,32.4916 192.338,33.1583 191.5,33.5C 180.679,32.5054 169.679,32.1721 158.5,32.5 Z"/></g>
<g><path style="opacity:1" fill="#212021" d="M 158.5,32.5 C 169.679,32.1721 180.679,32.5054 191.5,33.5C 156.024,35.1722 120.69,37.5056 85.5,40.5C 76.0959,40.5062 66.7626,41.1728 57.5,42.5C 40.8168,43.6122 24.1502,44.9456 7.5,46.5C 7.5,45.5 7.5,44.5 7.5,43.5C 12.3907,43.4681 17.0574,42.8015 21.5,41.5C 27.8627,41.593 34.1961,41.2597 40.5,40.5C 44.0419,40.8128 47.3752,40.4794 50.5,39.5C 58.8386,38.8884 67.172,38.2218 75.5,37.5C 86.3736,37.1551 97.0403,36.1551 107.5,34.5C 110.167,34.5 112.833,34.5 115.5,34.5C 129.824,33.6671 144.157,33.0005 158.5,32.5 Z"/></g>
<g><path style="opacity:1" fill="#414141" d="M 186.5,41.5 C 186.5,42.1667 186.833,42.5 187.5,42.5C 182.349,44.5764 177.349,46.9097 172.5,49.5C 167.105,50.7376 162.105,52.7376 157.5,55.5C 155.716,55.8925 154.05,56.5592 152.5,57.5C 152.158,56.6618 151.492,56.3284 150.5,56.5C 161.994,50.3338 173.994,45.3338 186.5,41.5 Z"/></g>
<g><path style="opacity:1" fill="#292829" d="M 150.5,56.5 C 151.492,56.3284 152.158,56.6618 152.5,57.5C 136.703,64.1481 122.036,72.6481 108.5,83C 106.541,83.9309 104.541,84.7643 102.5,85.5C 101.702,85.0431 101.369,84.3764 101.5,83.5C 112.506,75.9955 123.84,68.9955 135.5,62.5C 140.5,60.5 145.5,58.5 150.5,56.5 Z"/></g>
</svg>
