<?xml version="1.0" encoding="UTF-8"?>
<!DOCTYPE svg PUBLIC "-//W3C//DTD SVG 1.1//EN" "http://www.w3.org/Graphics/SVG/1.1/DTD/svg11.dtd">
<svg xmlns="http://www.w3.org/2000/svg" version="1.1" width="168px" height="214px" style="shape-rendering:geometricPrecision; text-rendering:geometricPrecision; image-rendering:optimizeQuality; fill-rule:evenodd; clip-rule:evenodd" xmlns:xlink="http://www.w3.org/1999/xlink">
<g><path style="opacity:1" fill="#ffffff" d="M 74.5,13.5 C 77.8333,13.5 81.1667,13.5 84.5,13.5C 92.5,13.5 100.5,13.5 108.5,13.5C 114.261,15.0569 120.261,15.7236 126.5,15.5C 133.308,17.2333 140.308,18.5667 147.5,19.5C 148.209,20.404 149.209,20.7373 150.5,20.5C 150.5,21.5 150.5,22.5 150.5,23.5C 147.794,23.4249 145.127,23.0916 142.5,22.5C 137.28,21.0309 131.946,20.3642 126.5,20.5C 110.31,16.7625 93.9764,15.7625 77.5,17.5C 73.2949,17.7167 69.2949,18.3833 65.5,19.5C 61.4661,19.5165 57.7994,20.5165 54.5,22.5C 44.4659,25.8776 36.4659,31.8776 30.5,40.5C 26.8316,45.1766 24.8316,50.5099 24.5,56.5C 24.1667,56.5 23.8333,56.5 23.5,56.5C 23.3399,52.7636 22.5066,52.7636 21,56.5C 20.3333,65.1667 20.3333,73.8333 21,82.5C 21.1724,76.3193 21.6724,70.3193 22.5,64.5C 22.5,70.8333 22.5,77.1667 22.5,83.5C 21.5386,85.2646 21.2053,87.2646 21.5,89.5C 19.9886,86.4557 19.322,83.1224 19.5,79.5C 16.5789,62.8897 20.0789,47.8897 30,34.5C 33.7672,30.2235 37.9339,26.5569 42.5,23.5C 52.593,18.0243 63.2597,14.691 74.5,13.5 Z"/></g>
<g><path style="opacity:1" fill="#ffffff" d="M 23.5,56.5 C 22.9084,59.1272 22.5751,61.7938 22.5,64.5C 21.6724,70.3193 21.1724,76.3193 21,82.5C 20.3333,73.8333 20.3333,65.1667 21,56.5C 22.5066,52.7636 23.3399,52.7636 23.5,56.5 Z"/></g>
<g><path style="opacity:1" fill="#ffffff" d="M 22.5,83.5 C 23.1667,84.8333 23.8333,86.1667 24.5,87.5C 24.5,88.8333 24.5,90.1667 24.5,91.5C 24.4095,94.1522 25.0762,96.4855 26.5,98.5C 26.5569,99.609 26.8902,100.609 27.5,101.5C 29.5953,109.126 32.262,116.459 35.5,123.5C 36.3208,127.127 37.6541,130.46 39.5,133.5C 41.2495,137.335 43.2495,141.001 45.5,144.5C 48.0784,150.664 51.4117,156.33 55.5,161.5C 58.9936,167.815 62.9936,173.815 67.5,179.5C 68.8352,181.903 70.5019,183.236 72.5,183.5C 71.2222,179.781 70.2222,176.114 69.5,172.5C 69.2962,169.482 68.9629,166.482 68.5,163.5C 69.8333,163.5 71.1667,163.5 72.5,163.5C 72.3623,168.153 73.3623,172.487 75.5,176.5C 74.4924,179.824 75.159,182.824 77.5,185.5C 76.2464,188.093 74.5798,190.427 72.5,192.5C 75.0824,196.489 77.2491,196.156 79,191.5C 79.2321,192.737 79.7321,193.737 80.5,194.5C 81.865,196.86 83.865,198.527 86.5,199.5C 86.5,200.5 86.5,201.5 86.5,202.5C 85.5,202.5 84.5,202.5 83.5,202.5C 80.1504,200.429 76.817,198.262 73.5,196C 65.9309,192.225 57.9309,189.558 49.5,188C 47.9632,186.89 47.2965,185.39 47.5,183.5C 50.9023,183.342 54.2356,183.676 57.5,184.5C 61.52,186.896 65.8533,188.396 70.5,189C 68.4983,186.14 66.165,183.64 63.5,181.5C 47.0898,158.349 34.0898,133.349 24.5,106.5C 24.0749,101.923 23.0749,97.5899 21.5,93.5C 21.5,92.1667 21.5,90.8333 21.5,89.5C 21.2053,87.2646 21.5386,85.2646 22.5,83.5 Z"/></g>
<g><path style="opacity:1" fill="#ffffff" d="M 77.5,185.5 C 78.4584,185.953 79.2917,186.619 80,187.5C 80.4966,189.81 80.6633,192.143 80.5,194.5C 79.7321,193.737 79.2321,192.737 79,191.5C 77.2491,196.156 75.0824,196.489 72.5,192.5C 74.5798,190.427 76.2464,188.093 77.5,185.5 Z"/></g>


</svg>
