<?xml version="1.0" encoding="UTF-8"?>
<!DOCTYPE svg PUBLIC "-//W3C//DTD SVG 1.1//EN" "http://www.w3.org/Graphics/SVG/1.1/DTD/svg11.dtd">
<svg xmlns="http://www.w3.org/2000/svg" version="1.1" width="123px" height="74px" style="shape-rendering:geometricPrecision; text-rendering:geometricPrecision; image-rendering:optimizeQuality; fill-rule:evenodd; clip-rule:evenodd" xmlns:xlink="http://www.w3.org/1999/xlink">
<g><path style="opacity:1" fill="#faf98f" d="M 91.5,7.5 C 79.8071,7.2787 68.1404,7.61204 56.5,8.5C 57.6085,7.71003 58.9419,7.21003 60.5,7C 71.0083,6.1748 81.3416,6.34147 91.5,7.5 Z"/></g>
<g><path style="opacity:1" fill="#fbf96e" d="M 91.5,7.5 C 96.2526,7.84338 100.919,8.51004 105.5,9.5C 104.5,12.1667 103.5,14.8333 102.5,17.5C 123.908,23.1814 127.241,34.1814 112.5,50.5C 111.761,50.631 111.094,50.4643 110.5,50C 111.76,48.1862 111.76,46.3529 110.5,44.5C 109.749,45.376 109.249,46.376 109,47.5C 108.817,44.6353 108.317,41.9686 107.5,39.5C 105.359,36.5282 102.692,34.0282 99.5,32C 92.4039,28.8013 85.0706,26.3013 77.5,24.5C 68.8711,23.132 60.2045,22.132 51.5,21.5C 51.6309,20.6236 51.2975,19.9569 50.5,19.5C 39.9719,20.4654 29.9719,23.2987 20.5,28C 15.1969,33.2397 15.1969,38.4064 20.5,43.5C 18.8828,42.962 17.2161,42.6287 15.5,42.5C 15.6882,40.8967 15.1882,39.5634 14,38.5C 14.3874,40.7739 14.5541,42.9405 14.5,45C 13.8333,46.6667 13.1667,48.3333 12.5,50C 14.4432,49.6948 16.4432,49.6948 18.5,50C 16.5,50.6667 14.5,51.3333 12.5,52C 13.8333,52.3333 15.1667,52.6667 16.5,53C 15.6919,53.3076 15.0253,53.8076 14.5,54.5C 15.5145,55.6815 16.6812,56.6815 18,57.5C 19.4397,56.8524 20.9397,56.5191 22.5,56.5C 22.3367,54.1432 22.5034,51.8098 23,49.5C 23.2362,51.764 23.7362,53.9307 24.5,56C 24.1667,56.3333 23.8333,56.6667 23.5,57C 24.8333,57.3333 26.1667,57.6667 27.5,58C 25.9443,58.7202 24.9443,59.8868 24.5,61.5C 17.1934,60.2636 10.6934,57.2636 5,52.5C 2.27386,48.1302 1.77386,43.4635 3.5,38.5C 11.7949,25.6845 23.1282,16.6845 37.5,11.5C 43.7208,9.85628 50.0541,8.85628 56.5,8.5C 68.1404,7.61204 79.8071,7.2787 91.5,7.5 Z"/></g>
<g><path style="opacity:1" fill="#fdf940" d="M 62.5,9.5 C 75.4544,9.56075 88.1211,11.3941 100.5,15C 100.957,15.414 101.291,15.914 101.5,16.5C 98.9852,19.0092 95.9852,20.6758 92.5,21.5C 79.2702,19.2368 65.9368,17.9035 52.5,17.5C 55.1345,13.863 58.4679,11.1963 62.5,9.5 Z"/></g>
<g><path style="opacity:1" fill="#fcfa70" d="M 107.5,39.5 C 108.317,41.9686 108.817,44.6353 109,47.5C 109.249,46.376 109.749,45.376 110.5,44.5C 111.76,46.3529 111.76,48.1862 110.5,50C 111.094,50.4643 111.761,50.631 112.5,50.5C 106.64,55.2625 100.307,59.2625 93.5,62.5C 91.1667,62.5 88.8333,62.5 86.5,62.5C 84.8333,62.5 83.1667,62.5 81.5,62.5C 80.1722,60.2554 78.3388,59.9221 76,61.5C 74.1746,60.8971 72.3413,60.2304 70.5,59.5C 71.1667,58.8333 71.8333,58.1667 72.5,57.5C 66.1928,56.6694 59.8594,56.1694 53.5,56C 60.0133,55.8279 66.3466,55.3279 72.5,54.5C 72.5,54.1667 72.5,53.8333 72.5,53.5C 83.2986,52.7214 93.9653,51.2214 104.5,49C 107.186,46.4537 108.186,43.287 107.5,39.5 Z"/></g>
<g><path style="opacity:1" fill="#fbfa6b" d="M 20.5,43.5 C 36.622,51.9586 53.9553,55.6253 72.5,54.5C 66.3466,55.3279 60.0133,55.8279 53.5,56C 59.8594,56.1694 66.1928,56.6694 72.5,57.5C 71.8333,58.1667 71.1667,58.8333 70.5,59.5C 72.3413,60.2304 74.1746,60.8971 76,61.5C 78.3388,59.9221 80.1722,60.2554 81.5,62.5C 80.1667,63.1667 78.8333,63.8333 77.5,64.5C 64.178,65.444 50.8447,65.6107 37.5,65C 32.9635,64.396 28.6302,63.2294 24.5,61.5C 24.9443,59.8868 25.9443,58.7202 27.5,58C 26.1667,57.6667 24.8333,57.3333 23.5,57C 23.8333,56.6667 24.1667,56.3333 24.5,56C 23.7362,53.9307 23.2362,51.764 23,49.5C 22.5034,51.8098 22.3367,54.1432 22.5,56.5C 20.9397,56.5191 19.4397,56.8524 18,57.5C 16.6812,56.6815 15.5145,55.6815 14.5,54.5C 15.0253,53.8076 15.6919,53.3076 16.5,53C 15.1667,52.6667 13.8333,52.3333 12.5,52C 14.5,51.3333 16.5,50.6667 18.5,50C 16.4432,49.6948 14.4432,49.6948 12.5,50C 13.1667,48.3333 13.8333,46.6667 14.5,45C 14.5541,42.9405 14.3874,40.7739 14,38.5C 15.1882,39.5634 15.6882,40.8967 15.5,42.5C 17.2161,42.6287 18.8828,42.962 20.5,43.5 Z"/></g>
<g><path style="opacity:1" fill="#fcf7ba" d="M 81.5,62.5 C 83.1667,62.5 84.8333,62.5 86.5,62.5C 83.8291,64.1181 80.8291,64.7847 77.5,64.5C 78.8333,63.8333 80.1667,63.1667 81.5,62.5 Z"/></g>
</svg>
