<?xml version="1.0" encoding="UTF-8"?>
<!DOCTYPE svg PUBLIC "-//W3C//DTD SVG 1.1//EN" "http://www.w3.org/Graphics/SVG/1.1/DTD/svg11.dtd">
<svg xmlns="http://www.w3.org/2000/svg" version="1.1" width="228px" height="95px"
     style="shape-rendering:geometricPrecision; text-rendering:geometricPrecision; image-rendering:optimizeQuality; fill-rule:evenodd; clip-rule:evenodd"
     xmlns:xlink="http://www.w3.org/1999/xlink">
     <g>
          <path style="opacity:1" fill="#fae80c"
               d="M 18.5,11.5 C 26.2101,12.8701 33.8767,14.5368 41.5,16.5C 46.0504,17.4915 50.7171,18.4915 55.5,19.5C 63.1131,20.8645 70.7798,21.8645 78.5,22.5C 85.9256,24.3211 93.5923,25.3211 101.5,25.5C 119.792,27.1645 138.126,28.1645 156.5,28.5C 173.523,28.2529 190.523,28.7529 207.5,30C 209.433,33.7412 209.766,37.5746 208.5,41.5C 206.833,41.5 205.167,41.5 203.5,41.5C 199.865,42.1143 196.198,42.4476 192.5,42.5C 192.232,44.099 192.566,45.4324 193.5,46.5C 193.611,47.1174 193.944,47.6174 194.5,48C 199.5,48.3333 204.5,48.6667 209.5,49C 210.667,50.8333 212.167,52.3333 214,53.5C 214.273,56.3931 215.107,59.0597 216.5,61.5C 216.182,62.6473 215.516,63.4806 214.5,64C 213,64.1667 211.5,64.3333 210,64.5C 203.523,63.7015 197.023,63.3682 190.5,63.5C 189.957,63.56 189.624,63.8933 189.5,64.5C 193.445,65.4909 197.445,65.8242 201.5,65.5C 202.317,67.9686 202.817,70.6353 203,73.5C 205.369,74.9274 205.869,76.7607 204.5,79C 189.134,79.5838 173.801,79.5838 158.5,79C 158.957,79.414 159.291,79.914 159.5,80.5C 158.398,81.1757 157.398,81.8423 156.5,82.5C 144.871,83.4363 133.204,83.7696 121.5,83.5C 94.1021,82.1383 66.7687,79.9716 39.5,77C 35.4601,75.8725 31.6267,74.3725 28,72.5C 27.3583,68.5092 26.8583,64.5092 26.5,60.5C 30.8814,60.3718 35.2147,60.7051 39.5,61.5C 39.7135,59.8561 39.3802,58.3561 38.5,57C 33.2418,57.0663 30.9085,54.5663 31.5,49.5C 29.8762,49.6399 28.7096,48.9733 28,47.5C 27.5014,43.8484 27.3347,40.1817 27.5,36.5C 30.5448,36.5079 33.5448,36.8413 36.5,37.5C 46.4951,39.165 56.4951,40.8317 66.5,42.5C 67.1667,42.1667 67.8333,41.8333 68.5,41.5C 58.1457,39.662 47.8124,37.662 37.5,35.5C 36.4324,34.5655 35.099,34.2322 33.5,34.5C 30.5867,33.7589 27.5867,33.2589 24.5,33C 23.1312,31.2811 22.1312,29.4478 21.5,27.5C 19.3331,26.802 17.4998,25.4687 16,23.5C 15.4987,19.4899 14.9987,15.4899 14.5,11.5C 15.8333,11.5 17.1667,11.5 18.5,11.5 Z" />
     </g>
</svg>